<svg width="816" height="597" viewBox="0 0 816 597" fill="none" xmlns="http://www.w3.org/2000/svg">
<g clip-path="url(#clip0_12_1084)">
<path d="M638.656 594.224H121.007C121.007 594.224 110.514 469.839 172.597 468.426C234.68 467.012 227.685 523.551 305.507 445.81C383.329 368.07 477.765 372.31 490.007 418.248C502.248 464.185 466.398 500.935 531.978 489.628C597.559 478.32 691.994 508.003 638.656 594.224Z" fill="#E6E6E6"/>
<path d="M371.093 594.252L369.346 594.195C373.421 512.302 394.641 459.684 411.725 429.965C430.275 397.695 448.15 384.631 448.328 384.503L449.491 385.559C449.315 385.686 431.648 398.62 413.247 430.671C396.257 460.265 375.153 512.667 371.093 594.252Z" fill="white"/>
<path d="M558.443 594.421L556.765 594.026C576.98 537.945 624.585 502.536 625.064 502.185L626.239 503.231C625.764 503.58 578.515 538.738 558.443 594.421Z" fill="white"/>
<path d="M202.539 594.321L200.807 594.126C206.341 563.058 200.246 531.048 183.675 504.147C171.114 483.595 156.781 472.37 156.638 472.259L157.848 471.239C157.993 471.351 172.547 482.749 185.243 503.521C201.968 530.667 208.121 562.968 202.539 594.321Z" fill="white"/>
<path d="M314.267 388.916L322.699 398.637C323.682 399.774 324.172 401.252 324.062 402.747C323.951 404.242 323.249 405.633 322.11 406.614L240.676 476.536C239.534 477.515 238.049 478.002 236.546 477.892C235.043 477.782 233.646 477.084 232.66 475.95L224.228 466.228C223.245 465.092 222.755 463.614 222.866 462.119C222.976 460.624 223.678 459.233 224.818 458.252L306.251 388.33C307.393 387.351 308.878 386.864 310.381 386.974C311.884 387.084 313.282 387.782 314.267 388.916Z" fill="#EF4B4C"/>
<path d="M388.829 395.652L382.915 384.238C382.226 382.905 382.097 381.354 382.556 379.926C383.015 378.498 384.024 377.309 385.362 376.621L480.968 327.576C482.308 326.891 483.866 326.762 485.302 327.219C486.737 327.675 487.932 328.679 488.624 330.011L494.538 341.424C495.227 342.758 495.356 344.309 494.897 345.737C494.439 347.165 493.429 348.354 492.091 349.042L396.486 398.087C395.145 398.772 393.587 398.901 392.151 398.444C390.716 397.988 389.521 396.984 388.829 395.652Z" fill="#EF4B4C"/>
<path d="M380.971 382.561C381.45 381.127 382.03 376.834 383.387 376.157L425.426 350.805C426.093 350.472 426.82 350.273 427.564 350.219C428.309 350.165 429.056 350.258 429.765 350.491C430.473 350.725 431.129 351.095 431.693 351.581C432.258 352.067 432.721 352.658 433.055 353.322L443.649 375.049L443.649 375.05C444.324 376.39 444.437 377.942 443.962 379.365C443.488 380.789 442.466 381.966 441.12 382.641L394.707 400.871C393.359 401.542 391.799 401.654 390.369 401.182C388.938 400.71 387.754 399.693 387.077 398.354L381.287 386.878C380.677 385.678 380.52 384.299 380.846 382.993C380.882 382.848 380.923 382.704 380.971 382.561Z" fill="#3F3D56"/>
<path d="M481.194 226.704H479.446V398.098H481.194V226.704Z" fill="#3F3D56"/>
<path d="M472.45 6.96016V220.29C472.452 221.791 472.94 223.251 473.843 224.452C474.746 225.654 476.015 226.533 477.461 226.959C478.907 227.384 480.452 227.333 481.867 226.814C483.282 226.294 484.49 225.333 485.311 224.075C495.363 208.868 507.749 195.322 522.018 183.932C522.446 183.583 522.881 183.241 523.316 182.906C527.636 179.514 532.118 176.33 536.761 173.352C537.063 173.164 537.364 172.968 537.666 172.787C565.599 155.096 598.036 145.724 631.148 145.779H809.005C810.86 145.779 812.639 145.046 813.951 143.741C815.263 142.435 816 140.665 816 138.819V6.96016C816 5.11421 815.263 3.34387 813.951 2.03858C812.639 0.733302 810.86 0 809.005 0H479.446C477.59 0 475.811 0.733302 474.499 2.03858C473.187 3.34387 472.45 5.11421 472.45 6.96016Z" fill="#E6E6E6"/>
<path d="M715.656 50.5079H490.266C489.213 50.5063 488.203 50.0889 487.459 49.3472C486.715 48.6055 486.297 47.6002 486.297 46.552C486.297 45.5039 486.715 44.4986 487.459 43.7569C488.203 43.0152 489.213 42.5977 490.266 42.5961H715.656C716.178 42.5954 716.696 42.6971 717.179 42.8956C717.662 43.094 718.101 43.3853 718.471 43.7527C718.841 44.1201 719.134 44.5565 719.334 45.0368C719.534 45.5171 719.637 46.032 719.637 46.552C719.637 47.072 719.534 47.5869 719.334 48.0672C719.134 48.5476 718.841 48.9839 718.471 49.3513C718.101 49.7187 717.662 50.01 717.179 50.2085C716.696 50.4069 716.178 50.5087 715.656 50.5079Z" fill="#CCCCCC"/>
<path d="M715.656 68.3841H490.266C489.212 68.3841 488.2 67.9673 487.455 67.2253C486.709 66.4834 486.29 65.4771 486.29 64.4278C486.29 63.3785 486.709 62.3722 487.455 61.6303C488.2 60.8883 489.212 60.4715 490.266 60.4715H715.656C716.178 60.4715 716.695 60.5738 717.177 60.7727C717.66 60.9715 718.098 61.2629 718.467 61.6303C718.836 61.9976 719.129 62.4338 719.329 62.9138C719.529 63.3938 719.632 63.9082 719.632 64.4278C719.632 64.9473 719.529 65.4618 719.329 65.9418C719.129 66.4218 718.836 66.8579 718.467 67.2253C718.098 67.5927 717.66 67.8841 717.177 68.0829C716.695 68.2818 716.178 68.3841 715.656 68.3841Z" fill="#CCCCCC"/>
<path d="M715.656 86.2594H490.266C489.213 86.2579 488.203 85.8404 487.459 85.0987C486.715 84.357 486.297 83.3517 486.297 82.3035C486.297 81.2554 486.715 80.2501 487.459 79.5084C488.203 78.7667 489.213 78.3492 490.266 78.3477H715.656C716.178 78.3469 716.696 78.4487 717.179 78.6471C717.662 78.8456 718.101 79.1368 718.471 79.5042C718.841 79.8717 719.134 80.308 719.334 80.7883C719.534 81.2687 719.637 81.7836 719.637 82.3035C719.637 82.8235 719.534 83.3384 719.334 83.8188C719.134 84.2991 718.841 84.7354 718.471 85.1028C718.101 85.4703 717.662 85.7615 717.179 85.96C716.696 86.1584 716.178 86.2602 715.656 86.2594Z" fill="#CCCCCC"/>
<path d="M798.448 86.2594H761.89C760.847 86.2583 759.847 85.8454 759.109 85.1115C758.372 84.3775 757.957 83.3823 757.955 82.3443V45.97C757.957 44.932 758.372 43.9369 759.109 43.2029C759.847 42.4689 760.847 42.0561 761.89 42.0549H798.448C799.492 42.0561 800.492 42.4689 801.229 43.2029C801.967 43.9369 802.382 44.932 802.383 45.97V82.3443C802.382 83.3823 801.967 84.3775 801.229 85.1115C800.492 85.8454 799.492 86.2583 798.448 86.2594ZM761.89 42.925C761.079 42.9259 760.301 43.2471 759.727 43.8179C759.154 44.3888 758.831 45.1627 758.83 45.97V82.3443C758.831 83.1516 759.154 83.9256 759.727 84.4964C760.301 85.0673 761.079 85.3884 761.89 85.3894H798.448C799.26 85.3884 800.038 85.0673 800.611 84.4964C801.185 83.9256 801.508 83.1516 801.509 82.3443V45.97C801.508 45.1627 801.185 44.3888 800.611 43.8179C800.038 43.2471 799.26 42.9259 798.448 42.925H761.89Z" fill="#EF4B4C"/>
<path d="M780.133 73.3289C779.868 73.3296 779.606 73.2727 779.366 73.1624C779.125 73.052 778.911 72.8908 778.74 72.69L767.258 59.3653C766.941 58.9966 766.784 58.5178 766.822 58.0342C766.86 57.5506 767.089 57.1016 767.459 56.7859C767.829 56.4702 768.31 56.3137 768.796 56.3506C769.282 56.3875 769.734 56.615 770.051 56.9829L779.176 67.5718C779.271 67.6841 779.391 67.7728 779.527 67.8308C779.662 67.8887 779.809 67.9144 779.956 67.9057C780.104 67.8988 780.247 67.8583 780.376 67.7873C780.505 67.7163 780.616 67.6167 780.7 67.4962L808.686 27.6274C808.824 27.4301 809 27.2618 809.203 27.1322C809.407 27.0026 809.634 26.9141 809.872 26.872C810.11 26.8298 810.354 26.8346 810.59 26.8863C810.826 26.938 811.05 27.0354 811.248 27.1731C811.446 27.3107 811.615 27.4859 811.745 27.6886C811.875 27.8912 811.964 28.1174 812.006 28.3542C812.048 28.591 812.043 28.8337 811.991 29.0685C811.939 29.3033 811.84 29.5255 811.702 29.7226L781.644 72.5464C781.484 72.7761 781.272 72.9661 781.027 73.1015C780.781 73.2369 780.507 73.3141 780.226 73.3272C780.195 73.3281 780.164 73.3289 780.133 73.3289Z" fill="#EF4B4C"/>
<path d="M480.32 246.714C491.427 246.714 500.431 237.755 500.431 226.704C500.431 215.652 491.427 206.693 480.32 206.693C469.213 206.693 460.209 215.652 460.209 226.704C460.209 237.755 469.213 246.714 480.32 246.714Z" fill="#3F3D56"/>
<path d="M241.607 351.117H239.858V522.51H241.607V351.117Z" fill="#3F3D56"/>
<path d="M239.792 349.943C238.633 349.941 237.491 349.664 236.461 349.135C235.431 348.606 234.543 347.839 233.87 346.9C227.348 337.991 219.667 329.982 211.027 323.084C210.72 322.834 210.412 322.591 210.102 322.353C207.023 319.936 203.79 317.639 200.489 315.522L200.259 315.378C200.122 315.291 199.986 315.205 199.85 315.123C179.947 302.502 156.834 295.803 133.233 295.814H7.43245C5.46194 295.812 3.57279 295.032 2.17942 293.646C0.786061 292.26 0.00227258 290.38 0 288.419V197.777C0.00227258 195.817 0.786061 193.937 2.17942 192.551C3.57279 191.164 5.46194 190.385 7.43245 190.382H239.858C241.829 190.385 243.718 191.164 245.111 192.551C246.505 193.937 247.289 195.817 247.291 197.777V342.528C247.307 344.095 246.816 345.625 245.891 346.893C244.965 348.16 243.653 349.097 242.15 349.565C241.389 349.814 240.593 349.941 239.792 349.943Z" fill="#E6E6E6"/>
<path d="M234.075 227.168H72.4108C72.02 227.168 71.6331 227.091 71.2721 226.942C70.9111 226.794 70.5831 226.576 70.3068 226.301C70.0305 226.026 69.8113 225.699 69.6618 225.34C69.5123 224.981 69.4353 224.596 69.4353 224.207C69.4353 223.818 69.5123 223.434 69.6618 223.074C69.8113 222.715 70.0305 222.389 70.3068 222.114C70.5831 221.839 70.9111 221.621 71.2721 221.472C71.6331 221.323 72.02 221.247 72.4108 221.247H234.075C234.465 221.247 234.852 221.323 235.213 221.472C235.574 221.621 235.902 221.839 236.179 222.114C236.455 222.389 236.674 222.715 236.824 223.074C236.973 223.434 237.05 223.818 237.05 224.207C237.05 224.596 236.973 224.981 236.824 225.34C236.674 225.699 236.455 226.026 236.179 226.301C235.902 226.576 235.574 226.794 235.213 226.942C234.852 227.091 234.465 227.168 234.075 227.168Z" fill="#CCCCCC"/>
<path d="M234.075 239.99H72.4108C71.6225 239.988 70.867 239.676 70.3101 239.121C69.7532 238.566 69.4404 237.813 69.4404 237.029C69.4404 236.245 69.7532 235.492 70.3101 234.937C70.867 234.382 71.6225 234.07 72.4108 234.068H234.075C234.864 234.068 235.621 234.38 236.179 234.936C236.737 235.491 237.05 236.244 237.05 237.029C237.05 237.814 236.737 238.567 236.179 239.122C235.621 239.678 234.864 239.99 234.075 239.99Z" fill="#CCCCCC"/>
<path d="M234.075 252.811H72.4108C72.02 252.811 71.6331 252.735 71.2721 252.586C70.9111 252.437 70.5831 252.219 70.3068 251.944C70.0305 251.669 69.8113 251.343 69.6618 250.984C69.5123 250.625 69.4353 250.24 69.4353 249.851C69.4353 249.462 69.5123 249.077 69.6618 248.718C69.8113 248.359 70.0305 248.032 70.3068 247.757C70.5831 247.482 70.9111 247.264 71.2721 247.116C71.6331 246.967 72.02 246.89 72.4108 246.89H234.075C234.465 246.89 234.852 246.967 235.213 247.116C235.574 247.264 235.902 247.482 236.179 247.757C236.455 248.032 236.674 248.359 236.824 248.718C236.973 249.077 237.05 249.462 237.05 249.851C237.05 250.24 236.973 250.625 236.824 250.984C236.674 251.343 236.455 251.669 236.179 251.944C235.902 252.219 235.574 252.437 235.213 252.586C234.852 252.735 234.465 252.811 234.075 252.811Z" fill="#CCCCCC"/>
<path d="M38.2594 252.811H14.0151C12.9719 252.81 11.9717 252.397 11.2341 251.663C10.4964 250.929 10.0815 249.934 10.0803 248.896V224.774C10.0815 223.736 10.4964 222.74 11.2341 222.006C11.9717 221.272 12.9719 220.86 14.0151 220.858H38.2594C39.3027 220.86 40.3028 221.272 41.0405 222.006C41.7782 222.74 42.1931 223.736 42.1943 224.774V248.896C42.1931 249.934 41.7782 250.929 41.0405 251.663C40.3028 252.397 39.3027 252.81 38.2594 252.811Z" fill="#CCCCCC"/>
<path d="M25.9969 243.537C25.7888 243.537 25.5833 243.492 25.3944 243.406C25.2055 243.319 25.0378 243.192 24.903 243.035L16.6692 233.478C16.4205 233.189 16.2973 232.813 16.3265 232.434C16.3557 232.054 16.535 231.702 16.825 231.453C17.1157 231.205 17.4933 231.083 17.875 231.112C18.2567 231.141 18.6111 231.32 18.8603 231.609L25.4043 239.204C25.462 239.267 25.533 239.318 25.6123 239.352C25.6916 239.386 25.7773 239.403 25.8637 239.401C25.9505 239.397 26.0352 239.373 26.1113 239.331C26.1874 239.289 26.2528 239.23 26.3026 239.159L46.3751 210.563C46.4834 210.408 46.6214 210.275 46.7812 210.173C46.9411 210.071 47.1195 210.002 47.3064 209.968C47.4933 209.935 47.6849 209.939 47.8703 209.98C48.0557 210.02 48.2313 210.097 48.3869 210.205C48.5426 210.313 48.6752 210.451 48.7773 210.61C48.8794 210.769 48.9489 210.947 48.9818 211.133C49.0148 211.319 49.0105 211.51 48.9693 211.694C48.9281 211.878 48.8508 212.053 48.7417 212.208L27.1821 242.922C27.0564 243.103 26.8907 243.252 26.6978 243.358C26.5049 243.464 26.29 243.524 26.0699 243.534C26.0455 243.536 26.0212 243.537 25.9969 243.537Z" fill="white"/>
<path d="M240.733 371.127C251.84 371.127 260.844 362.168 260.844 351.117C260.844 340.065 251.84 331.106 240.733 331.106C229.626 331.106 220.622 340.065 220.622 351.117C220.622 362.168 229.626 371.127 240.733 371.127Z" fill="#3F3D56"/>
<path d="M353.745 347.328C379.591 347.328 400.543 326.481 400.543 300.765C400.543 275.049 379.591 254.203 353.745 254.203C327.9 254.203 306.948 275.049 306.948 300.765C306.948 326.481 327.9 347.328 353.745 347.328Z" fill="#EF4B4C"/>
<path d="M351.618 596.003H338.712C337.205 596.001 335.761 595.405 334.695 594.344C333.63 593.284 333.03 591.847 333.029 590.348V483.323C333.03 481.824 333.63 480.387 334.695 479.326C335.761 478.266 337.205 477.67 338.712 477.668H351.618C353.125 477.67 354.569 478.266 355.635 479.326C356.7 480.387 357.3 481.824 357.301 483.323V590.348C357.3 591.847 356.7 593.284 355.635 594.344C354.569 595.405 353.125 596.001 351.618 596.003Z" fill="#EF4B4C"/>
<path d="M421.02 538.6L410.521 546.069C409.295 546.939 407.771 547.29 406.284 547.044C404.798 546.799 403.47 545.976 402.592 544.758L340.03 457.698C339.155 456.478 338.802 454.962 339.049 453.483C339.296 452.004 340.123 450.682 341.348 449.809L351.846 442.34C353.073 441.469 354.597 441.119 356.083 441.364C357.57 441.61 358.897 442.432 359.775 443.651L422.338 530.71C423.213 531.931 423.565 533.447 423.318 534.926C423.071 536.405 422.245 537.726 421.02 538.6Z" fill="#EF4B4C"/>
<path d="M387.125 595.252L375.571 589.528C372.766 588.139 371.189 585.598 372.057 583.864L401.833 524.355C402.701 522.621 405.689 522.341 408.494 523.731L420.048 529.454C422.853 530.844 424.43 533.385 423.562 535.119L393.786 594.628C392.919 596.361 389.93 596.641 387.125 595.252Z" fill="#EF4B4C"/>
<path d="M428.213 459.628C428.213 497.587 392.326 509.832 354.175 509.832C316.024 509.832 290.056 497.587 290.056 459.628C290.056 421.669 315.737 356.966 353.888 356.966C392.039 356.966 428.213 421.669 428.213 459.628Z" fill="#3F3D56"/>
<path d="M325.893 378.1C327.215 378.382 328.391 379.127 329.208 380.2L337.027 390.415C337.938 391.609 338.337 393.114 338.135 394.6C337.933 396.085 337.147 397.431 335.949 398.341L299.104 431.824C297.905 432.731 296.392 433.127 294.899 432.926C293.406 432.725 292.054 431.943 291.14 430.751L291.139 430.751L276.173 411.739C275.721 411.148 275.39 410.475 275.2 409.757C275.009 409.039 274.962 408.29 275.063 407.554C275.163 406.818 275.408 406.109 275.783 405.468C276.159 404.826 276.658 404.264 277.251 403.814L318.604 377.369C319.812 376.454 323.943 377.819 325.448 378.022C325.598 378.042 325.747 378.068 325.893 378.1Z" fill="#3F3D56"/>
<path d="M352.988 254.545C347.472 243.279 352.361 229.513 361.354 221.55C372.214 211.933 388.419 211.989 401.312 217.095C415.313 222.64 425.725 234.412 433.212 247.067C436.986 253.447 439.933 260.201 443.061 266.902C446.124 273.468 449.58 280.023 454.746 285.217C459.067 289.629 464.759 292.46 470.899 293.252C476.535 293.969 482.608 292.832 486.917 288.947C487.946 288.002 488.846 286.927 489.593 285.748C490.508 284.33 488.239 283.02 487.328 284.43C484.189 289.292 478.414 291.111 472.834 290.82C466.678 290.442 460.887 287.785 456.6 283.371C451.388 278.131 448.022 271.421 444.958 264.794C441.802 257.967 438.749 251.128 434.837 244.682C427.091 231.917 416.457 220.407 402.334 214.708C389.165 209.394 372.818 209.305 361.203 218.297C351.449 225.848 345.571 239.36 349.027 251.508C349.462 253.007 350.029 254.464 350.723 255.862C351.462 257.372 353.725 256.05 352.988 254.545Z" fill="#2F2E41"/>
<path d="M354.591 250.273L342.137 246.182C341.537 245.985 340.982 245.672 340.504 245.262C340.026 244.851 339.633 244.351 339.349 243.79C339.065 243.229 338.895 242.618 338.849 241.991C338.802 241.364 338.88 240.735 339.078 240.138C339.276 239.541 339.59 238.989 340.003 238.514C340.415 238.038 340.918 237.647 341.482 237.365C342.046 237.082 342.66 236.913 343.29 236.867C343.92 236.82 344.553 236.898 345.152 237.095L357.607 241.187C358.208 241.383 358.764 241.695 359.243 242.105C359.723 242.515 360.116 243.015 360.401 243.577C360.686 244.139 360.857 244.751 360.904 245.378C360.951 246.005 360.873 246.636 360.674 247.233C360.476 247.831 360.161 248.383 359.748 248.859C359.335 249.336 358.832 249.726 358.267 250.009C357.702 250.291 357.086 250.46 356.456 250.505C355.825 250.551 355.191 250.472 354.591 250.273Z" fill="#2F2E41"/>
<path d="M347.515 318.023L347.467 316.283C350.72 316.193 353.589 315.99 355.744 314.423C356.355 313.954 356.857 313.359 357.216 312.679C357.576 311.999 357.784 311.25 357.826 310.483C357.864 310.015 357.793 309.544 357.618 309.107C357.443 308.67 357.169 308.279 356.818 307.965C355.387 306.763 353.085 307.152 351.407 307.917L349.96 308.578L352.735 288.401L354.468 288.638L352.107 305.8C354.387 305.133 356.5 305.42 357.947 306.636C358.502 307.119 358.938 307.723 359.221 308.401C359.503 309.079 359.624 309.812 359.574 310.545C359.523 311.575 359.246 312.582 358.762 313.495C358.279 314.407 357.601 315.204 356.775 315.828C354.006 317.842 350.407 317.942 347.515 318.023Z" fill="#2F2E41"/>
<path d="M372.455 290.118H363.036V291.858H372.455V290.118Z" fill="#2F2E41"/>
<path d="M364.427 289.717H355.009V291.457H364.427V289.717Z" fill="#2F2E41"/>
<path d="M516.416 595.051H233.08V597H516.416V595.051Z" fill="#3F3D56"/>
</g>
<defs>
<clipPath id="clip0_12_1084">
<rect width="816" height="597" fill="white"/>
</clipPath>
</defs>
</svg>
